<svg width="317.73125px" height="122px" xmlns="http://www.w3.org/2000/svg" viewBox="91.134375 14 317.73125 122" style="background: rgba(0, 0, 0, 0);" preserveAspectRatio="xMidYMid"><defs><filter id="editing-hole" x="-100%" y="-100%" width="300%" height="300%"><feFlood flood-color="#000" result="black"></feFlood><feMorphology operator="dilate" radius="2" in="SourceGraphic" result="erode"></feMorphology><feGaussianBlur in="erode" stdDeviation="4" result="blur"></feGaussianBlur><feOffset in="blur" dx="2" dy="2" result="offset"></feOffset><feComposite operator="atop" in="offset" in2="black" result="merge"></feComposite><feComposite operator="in" in="merge" in2="SourceGraphic" result="inner-shadow"></feComposite></filter></defs><g filter="url(#editing-hole)"><g transform="translate(142.14262974262238, 98.68000030517578)"><path d="M6.53 0L-0.83 0L10.75-42.24L24.13-42.24L27.07-18.11L38.98-42.24L50.18-42.24L51.33-10.62L51.33-10.62Q51.58-4.35 54.66-2.43L54.66-2.43L54.66-2.43Q53.95-1.15 51.90 0.06L51.90 0.06L51.90 0.06Q49.86 1.28 47.14 1.28L47.14 1.28L47.14 1.28Q44.42 1.28 42.82 0.51L42.82 0.51L42.82 0.51Q41.22-0.26 40.32-1.54L40.32-1.54L40.32-1.54Q38.72-3.84 38.72-8.26L38.72-8.26L38.72-28.03L26.11 0L18.18 0L13.70-28.74L6.53 0ZM72.70-3.52L72.70-3.52L72.70-3.52Q70.72 1.28 64.38 1.28L64.38 1.28L64.38 1.28Q61.18 1.28 59.14-0.96L59.14-0.96L59.14-0.96Q57.47-2.82 57.47-4.93L57.47-4.93L57.47-4.93Q57.47-9.73 59.71-20.22L59.71-20.22L64.38-44.80L77.38-46.08L71.17-13.70L71.17-13.70Q70.08-8.96 70.08-7.30L70.08-7.30L70.08-7.30Q70.08-3.65 72.70-3.52ZM104.06-10.82L104.06-10.82L104.06-10.82Q105.66-9.73 105.66-7.33L105.66-7.33L105.66-7.33Q105.66-4.93 104.45-3.39L104.45-3.39L104.45-3.39Q103.23-1.86 101.25-0.83L101.25-0.83L101.25-0.83Q97.15 1.28 92.74 1.28L92.74 1.28L92.74 1.28Q88.32 1.28 85.73 0.32L85.73 0.32L85.73 0.32Q83.14-0.64 81.41-2.43L81.41-2.43L81.41-2.43Q78.02-5.82 78.02-12.03L78.02-12.03L78.02-12.03Q78.02-21.70 83.26-27.58L83.26-27.58L83.26-27.58Q88.90-33.92 98.69-33.92L98.69-33.92L98.69-33.92Q104.77-33.92 107.78-31.36L107.78-31.36L107.78-31.36Q110.02-29.44 110.02-26.30L110.02-26.30L110.02-26.30Q110.02-15.04 90.56-15.04L90.56-15.04L90.56-15.04Q90.30-13.38 90.30-11.97L90.30-11.97L90.30-11.97Q90.30-9.02 91.62-7.90L91.62-7.90L91.62-7.90Q92.93-6.78 95.36-6.78L95.36-6.78L95.36-6.78Q97.79-6.78 100.38-7.90L100.38-7.90L100.38-7.90Q102.98-9.02 104.06-10.82ZM91.01-17.79L91.01-17.79L91.01-17.79Q95.55-17.79 98.18-20.61L98.18-20.61L98.18-20.61Q100.80-23.30 100.80-27.58L100.80-27.58L100.80-27.58Q100.80-29.06 100.26-29.86L100.26-29.86L100.26-29.86Q99.71-30.66 98.62-30.66L98.62-30.66L98.62-30.66Q97.54-30.66 96.61-30.24L96.61-30.24L96.61-30.24Q95.68-29.82 94.72-28.42L94.72-28.42L94.72-28.42Q92.35-25.22 91.01-17.79ZM143.62-26.62L143.62-26.62L143.62-26.62Q143.62-23.94 141.38-22.27L141.38-22.27L141.38-22.27Q139.14-20.61 135.49-20.61L135.49-20.61L135.49-20.61Q133.95-20.61 133.06-21.06L133.06-21.06L133.06-21.06Q133.76-22.72 133.98-24.80L133.98-24.80L133.98-24.80Q134.21-26.88 134.21-27.46L134.21-27.46L134.21-27.46Q134.21-30.14 132.35-30.14L132.35-30.14L132.35-30.14Q131.07-30.14 129.63-28.54L129.63-28.54L129.63-28.54Q128.19-26.94 126.98-24.45L126.98-24.45L126.98-24.45Q124.29-18.69 124.29-12.86L124.29-12.86L124.29-12.86Q124.29-9.66 125.50-8.22L125.50-8.22L125.50-8.22Q126.72-6.78 129.41-6.78L129.41-6.78L129.41-6.78Q133.12-6.78 136.06-9.86L136.06-9.86L136.06-9.86Q136.90-10.82 137.34-11.90L137.34-11.90L137.34-11.90Q139.78-10.62 139.78-7.10L139.78-7.10L139.78-7.10Q139.78-3.52 135.81-1.15L135.81-1.15L135.81-1.15Q131.71 1.28 125.18 1.28L125.18 1.28L125.18 1.28Q112.19 1.28 112.19-12.48L112.19-12.48L112.19-12.48Q112.19-22.53 117.89-28.29L117.89-28.29L117.89-28.29Q123.39-33.92 133.50-33.92L133.50-33.92L133.50-33.92Q143.62-33.92 143.62-26.62ZM157.66 0.64L157.66 0.64L157.66 0.64Q154.62 0 153.06-0.29L153.06-0.29L153.06-0.29Q151.49-0.58 149.66-0.58L149.66-0.58L149.66-0.58Q147.84-0.58 146.05 0.06L146.05 0.06L146.05 0.06Q145.09-0.51 144.48-1.66L144.48-1.66L144.48-1.66Q143.87-2.82 143.87-4.61L143.87-4.61L143.87-4.61Q143.87-8.38 147.71-11.26L147.71-11.26L163.97-22.98L163.97-22.98Q159.42-24.26 155.30-24.26L155.30-24.26L155.30-24.26Q151.17-24.26 149.70-21.44L149.70-21.44L149.70-21.44Q147.52-24 147.52-28.03L147.52-28.03L147.52-28.03Q147.52-30.72 149.47-32.48L149.47-32.48L149.47-32.48Q151.42-34.24 155.52-34.24L155.52-34.24L155.52-34.24Q157.82-34.24 159.90-33.95L159.90-33.95L159.90-33.95Q161.98-33.66 163.84-33.41L163.84-33.41L167.30-32.90L167.30-32.90Q168.96-32.64 170.66-32.64L170.66-32.64L170.66-32.64Q172.35-32.64 173.63-33.34L173.63-33.34L173.63-33.34Q175.30-31.81 175.30-29.70L175.30-29.70L175.30-29.70Q175.30-26.37 171.20-22.91L171.20-22.91L155.01-10.82L155.01-10.82Q160-9.34 162.56-9.34L162.56-9.34L162.56-9.34Q167.94-9.34 170.24-11.90L170.24-11.90L170.24-11.90Q172.03-9.86 172.03-6.30L172.03-6.30L172.03-6.30Q172.03-2.75 169.73-0.74L169.73-0.74L169.73-0.74Q167.42 1.28 163.26 1.28L163.26 1.28L163.26 1.28Q160.70 1.28 157.66 0.64ZM198.14-2.69L198.14-2.69L198.14-2.69Q195.07 1.28 187.46 1.28L187.46 1.28L187.46 1.28Q183.49 1.28 180.61-1.12L180.61-1.12L180.61-1.12Q177.73-3.52 177.73-6.98L177.73-6.98L177.73-6.98Q177.73-8.90 177.92-9.86L177.92-9.86L182.21-32.64L195.20-33.92L190.53-9.22L190.53-9.22Q190.27-7.81 190.27-6.98L190.27-6.98L190.27-6.98Q190.27-3.26 192.51-3.26L192.51-3.26L192.51-3.26Q195.01-3.26 196.80-6.66L196.80-6.66L196.80-6.66Q197.38-7.74 197.63-9.15L197.63-9.15L202.18-32.64L214.78-33.92L210.05-8.96L210.05-8.96Q209.86-8 209.86-6.98L209.86-6.98L209.86-6.98Q209.86-5.95 210.43-4.83L210.43-4.83L210.43-4.83Q211.01-3.71 212.86-3.46L212.86-3.46L212.86-3.46Q212.48-1.92 211.14-0.90L211.14-0.90L211.14-0.90Q208.32 1.28 205.28 1.28L205.28 1.28L205.28 1.28Q202.24 1.28 200.45 0.19L200.45 0.19L200.45 0.19Q198.66-0.90 198.14-2.69Z" fill="#ccc"></path></g></g><style>text {
  font-size: 64px;
  font-family: Arial Black;
  dominant-baseline: central;
  text-anchor: middle;
}</style></svg>